<svg xmlns="http://www.w3.org/2000/svg" width="22" height="22" fill="none" viewBox="0 0 22 22">
    <path fill="#9F2241" fill-rule="evenodd" d="M11 2c-4.97 0-9 4.03-9 9s4.03 9 9 9 9-4.03 9-9-4.03-9-9-9zM0 11C0 4.925 4.925 0 11 0s11 4.925 11 11-4.925 11-11 11S0 17.075 0 11z" clip-rule="evenodd"/>
    <path fill="#9F2241" fill-rule="evenodd" d="M11 4c.552 0 1 .448 1 1v5.382l3.447 1.724c.494.247.694.847.447 1.341-.247.494-.847.694-1.341.447l-4-2C10.214 11.725 10 11.38 10 11V5c0-.552.448-1 1-1z" clip-rule="evenodd"/>
</svg>
